# xmcd
#
# Track frame offsets:
# 150
# 17905
# 31065
# 47691
# 64484
# 78068
# 92306
# 104520
# 115606
# 132050
# 144268
# 160013
# 178495
# 195464
# 211677
# 225376
# 243478
# 259934
# 276059
# 296161
#
# Disc length: 4185 seconds
#
#
# Revision: 0
# Processed by: cddbd v1.5.2PL0 Copyright (c) Steve Scherf et al.
# Submitted via: FreeRIP 2.95 
#
DISCID=0c105714
DTITLE=Bruno and Marrone - Bruno and Marrone 2006
DYEAR=2006
DGENRE=Sertanejo
TTITLE0=Choram As Rosas
TTITLE1=Pra La Que Eu Vou
TTITLE2=Por Que Choras
TTITLE3=Se Nao For Por Amor
TTITLE4=A Culpa E Sua
TTITLE5=Apaziguar
TTITLE6=Feriado Nacional
TTITLE7=Sem Vergonha
TTITLE8=Menina
TTITLE9=Sexta Feira
TTITLE10=Que Pescar Que Nada
TTITLE11=Coracao De Pedra
TTITLE12=Deixa
TTITLE13=Doce Desejo
TTITLE14=Credo Em Cruz Ave Maria
TTITLE15=Mais Uma Vez
TTITLE16=Quer Casar Comigo
TTITLE17=Raridade
TTITLE18=Se Nao Tivesse Ido
TTITLE19=Vai Dar Namoro
EXTD=
EXTT0=
EXTT1=
EXTT2=
EXTT3=
EXTT4=
EXTT5=
EXTT6=
EXTT7=
EXTT8=
EXTT9=
EXTT10=
EXTT11=
EXTT12=
EXTT13=
EXTT14=
EXTT15=
EXTT16=
EXTT17=
EXTT18=
EXTT19=
PLAYORDER=
